<svg width="18" height="18" viewBox="0 0 18 18" fill="none" xmlns="http://www.w3.org/2000/svg">
<path d="M11.3303 14.1203C11.0686 14.1203 10.8416 13.9259 10.8077 13.6596C10.7711 13.3706 10.9754 13.1067 11.2642 13.0699C12.9306 12.8576 14.4228 12.406 15.4659 11.7982C16.42 11.2425 16.9452 10.589 16.9452 9.95842C16.9452 9.2634 16.3306 8.69472 15.8147 8.33986C15.5748 8.17479 15.5141 7.84658 15.6792 7.60653C15.8443 7.36661 16.1726 7.30591 16.4125 7.47098C17.451 8.18537 17.9999 9.04546 17.9999 9.95856C17.9999 10.9948 17.3074 11.9461 15.997 12.7095C14.8175 13.3967 13.2271 13.8832 11.3976 14.1162C11.3749 14.1189 11.3524 14.1203 11.3303 14.1203Z" fill="#333333"/>
<path d="M8.87146 13.3649L7.46521 11.9586C7.25922 11.7526 6.92537 11.7526 6.71938 11.9586C6.51352 12.1645 6.51352 12.4985 6.71938 12.7043L7.13027 13.1152C5.55483 12.9525 4.12358 12.5857 3.01534 12.0527C1.76935 11.4535 1.05469 10.6901 1.05469 9.95842C1.05469 9.33783 1.56638 8.6928 2.49541 8.14211C2.74603 7.99366 2.82871 7.67011 2.68025 7.41962C2.53166 7.169 2.20811 7.08632 1.95763 7.23478C0.339615 8.19388 0 9.24527 0 9.95842C0 11.1285 0.908569 12.2098 2.5583 13.0033C3.83876 13.6189 5.49509 14.0313 7.29959 14.1909L6.71938 14.7711C6.51352 14.977 6.51352 15.311 6.71938 15.517C6.82237 15.6198 6.95737 15.6713 7.09236 15.6713C7.22722 15.6713 7.36221 15.6198 7.46521 15.517L8.87146 14.1107C9.07732 13.9047 9.07732 13.5707 8.87146 13.3649Z" fill="#333333"/>
<path d="M5.52293 8.90237V8.77548C5.52293 8.32792 5.24896 8.24113 4.88161 8.24113C4.65446 8.24113 4.58099 8.04077 4.58099 7.8404C4.58099 7.6399 4.65446 7.43954 4.88161 7.43954C5.13539 7.43954 5.40263 7.40617 5.40263 6.86509C5.40263 6.47769 5.18222 6.38416 4.90825 6.38416C4.58099 6.38416 4.414 6.46436 4.414 6.72488C4.414 6.95188 4.31375 7.10555 3.92635 7.10555C3.44542 7.10555 3.38541 7.0053 3.38541 6.68464C3.38541 6.16375 3.75935 5.48905 4.90825 5.48905C5.75667 5.48905 6.39786 5.79626 6.39786 6.6981C6.39786 7.18562 6.21754 7.6399 5.88356 7.79357C6.27769 7.94052 6.56485 8.2344 6.56485 8.77548V8.90237C6.56485 9.99785 5.81009 10.412 4.87488 10.412C3.72598 10.412 3.28516 9.71069 3.28516 9.14956C3.28516 8.84895 3.41205 8.76875 3.7794 8.76875C4.20691 8.76875 4.31375 8.86227 4.31375 9.11619C4.31375 9.43013 4.60777 9.5036 4.90825 9.5036C5.36253 9.5036 5.52293 9.33661 5.52293 8.90237Z" fill="#333333"/>
<path d="M10.6194 8.77548V8.83563C10.6194 9.98453 9.90464 10.412 8.98288 10.412C8.06113 10.412 7.3396 9.98453 7.3396 8.83563V7.06545C7.3396 5.91656 8.08104 5.48905 9.04303 5.48905C10.1719 5.48905 10.6194 6.19039 10.6194 6.74479C10.6194 7.06545 10.4658 7.16557 10.1318 7.16557C9.84462 7.16557 9.5907 7.0921 9.5907 6.78489C9.5907 6.53111 9.3236 6.39748 9.00966 6.39748C8.61553 6.39748 8.38165 6.60458 8.38165 7.06545V7.66654C8.59548 7.43281 8.89609 7.37266 9.21675 7.37266C9.97811 7.37266 10.6194 7.70665 10.6194 8.77548ZM8.38165 8.9091C8.38165 9.36998 8.6088 9.57034 8.98288 9.57034C9.35697 9.57034 9.57738 9.36998 9.57738 8.9091V8.84895C9.57738 8.36129 9.35697 8.17425 8.97615 8.17425C8.61553 8.17425 8.38165 8.34797 8.38165 8.7888V8.9091Z" fill="#333333"/>
<path d="M11.4277 8.83563V7.06545C11.4277 5.91656 12.1424 5.48905 13.0643 5.48905C13.986 5.48905 14.7074 5.91656 14.7074 7.06545V8.83563C14.7074 9.98453 13.986 10.412 13.0643 10.412C12.1424 10.412 11.4277 9.98453 11.4277 8.83563ZM13.6654 7.06545C13.6654 6.60458 13.4384 6.39748 13.0643 6.39748C12.6902 6.39748 12.4698 6.60458 12.4698 7.06545V8.83563C12.4698 9.29651 12.6902 9.5036 13.0643 9.5036C13.4384 9.5036 13.6654 9.29651 13.6654 8.83563V7.06545Z" fill="#333333"/>
<path d="M15.9734 5.48439C15.1009 5.48439 14.3914 4.77467 14.3914 3.90236C14.3914 3.03004 15.1009 2.32033 15.9734 2.32033C16.8457 2.32033 17.5554 3.03004 17.5554 3.90236C17.5554 4.77467 16.8457 5.48439 15.9734 5.48439ZM15.9734 3.37502C15.6825 3.37502 15.446 3.61163 15.446 3.90236C15.446 4.19322 15.6825 4.4297 15.9734 4.4297C16.2641 4.4297 16.5007 4.19322 16.5007 3.90236C16.5007 3.61163 16.2641 3.37502 15.9734 3.37502Z" fill="#333333"/>
</svg>
