<svg width="18" height="18" viewBox="0 0 18 18" fill="none" xmlns="http://www.w3.org/2000/svg">
<g clip-path="url(#clip0)">
<path d="M10.6875 0H2.0625C0.9225 0 0 0.9225 0 2.0625V13.6875C0 14.8275 0.9225 15.75 2.0625 15.75H8.1675C7.5075 14.85 7.125 13.755 7.125 12.5625C7.125 9.5625 9.5625 7.125 12.5625 7.125C12.6225 7.125 12.69 7.125 12.75 7.1325V2.0625C12.75 0.9225 11.8275 0 10.6875 0ZM3 3H6C6.4125 3 6.75 3.3375 6.75 3.75C6.75 4.1625 6.4125 4.5 6 4.5H3C2.5875 4.5 2.25 4.1625 2.25 3.75C2.25 3.3375 2.5875 3 3 3ZM6.75 10.5H3C2.5875 10.5 2.25 10.1625 2.25 9.75C2.25 9.3375 2.5875 9 3 9H6.75C7.1625 9 7.5 9.3375 7.5 9.75C7.5 10.1625 7.1625 10.5 6.75 10.5ZM9.75 7.5H3C2.5875 7.5 2.25 7.1625 2.25 6.75C2.25 6.3375 2.5875 6 3 6H9.75C10.1625 6 10.5 6.3375 10.5 6.75C10.5 7.1625 10.1625 7.5 9.75 7.5Z" fill="#333333"/>
<path d="M12.5625 16.5C10.3913 16.5 8.625 14.7338 8.625 12.5625C8.625 10.3913 10.3913 8.625 12.5625 8.625C14.7338 8.625 16.5 10.3913 16.5 12.5625C16.5 14.7338 14.7338 16.5 12.5625 16.5ZM12.5625 10.125C11.2185 10.125 10.125 11.2185 10.125 12.5625C10.125 13.9065 11.2185 15 12.5625 15C13.9065 15 15 13.9065 15 12.5625C15 11.2185 13.9065 10.125 12.5625 10.125Z" fill="#333333"/>
<path d="M17.2499 18C17.0579 18 16.8659 17.9265 16.7197 17.7803L14.2822 15.3428C13.9889 15.0495 13.9889 14.5755 14.2822 14.2823C14.5754 13.989 15.0494 13.989 15.3427 14.2823L17.7802 16.7198C18.0734 17.013 18.0734 17.487 17.7802 17.7803C17.6339 17.9265 17.4419 18 17.2499 18Z" fill="#333333"/>
</g>
<defs>
<clipPath id="clip0">
<rect width="18" height="18" fill="white"/>
</clipPath>
</defs>
</svg>
