<svg width="14" height="14" viewBox="0 0 14 14" fill="none" xmlns="http://www.w3.org/2000/svg">
<path d="M9.625 8.5H9.02875L8.8225 8.29375C9.5575 7.4425 10 6.33625 10 5.125C10 2.4325 7.8175 0.25 5.125 0.25C2.4325 0.25 0.25 2.4325 0.25 5.125C0.25 7.8175 2.4325 10 5.125 10C6.33625 10 7.4425 9.5575 8.29375 8.82625L8.5 9.0325V9.625L12.25 13.3675L13.3675 12.25L9.625 8.5ZM5.125 8.5C3.26125 8.5 1.75 6.98875 1.75 5.125C1.75 3.26125 3.26125 1.75 5.125 1.75C6.98875 1.75 8.5 3.26125 8.5 5.125C8.5 6.98875 6.98875 8.5 5.125 8.5Z" fill="#333333"/>
</svg>
