<svg width="72" height="72" viewBox="0 0 72 72" fill="none" xmlns="http://www.w3.org/2000/svg">
<path d="M48.4448 29.6719L41.1938 17.0156H31.0408L24.4485 29.6719H48.4448Z" fill="#7E127B"/>
<path d="M24.075 33.8906L35.9567 66.3003L49.6006 33.8906H24.075Z" fill="#7E127B"/>
<path d="M0 33.8906L33.5072 72L33.5314 71.9456L19.5386 33.8906H0Z" fill="#7E127B"/>
<path d="M26.2853 17.0156H9.55975L0 29.6719H19.693L26.2853 17.0156Z" fill="#7E127B"/>
<path d="M53.3091 29.6719H72.0001L62.4426 17.0156H46.0581L53.3091 29.6719Z" fill="#7E127B"/>
<path d="M38.1138 71.7495L38.2126 72L72 33.8906H54.234L38.1138 71.7495Z" fill="#7E127B"/>
<path d="M33.8906 0H38.1094V6.32812H33.8906V0Z" fill="#7E127B"/>
<path d="M24.9208 4.93604L29.1395 9.15479L26.1567 12.1376L21.938 7.91882L24.9208 4.93604Z" fill="#7E127B"/>
<path d="M47.2499 4.93555L50.2327 7.91833L46.0145 12.1371L43.0317 9.1543L47.2499 4.93555Z" fill="#7E127B"/>
</svg>
