<svg width="72" height="72" viewBox="0 0 72 72" fill="none" xmlns="http://www.w3.org/2000/svg">
<path d="M63.4219 27.5614V10.5458C63.4219 9.37989 62.4784 8.43644 61.3125 8.43644C48.234 8.43644 37.3658 0.495344 37.2586 0.415047C36.5129 -0.137047 35.487 -0.137047 34.7414 0.415047C34.6343 0.495484 23.766 8.43644 10.6875 8.43644C9.52158 8.43644 8.57812 9.37989 8.57812 10.5458V27.5614H17.0156V18.1778C17.0156 17.1622 17.7387 16.293 18.7356 16.1056C25.5705 14.8181 31.3445 12.1669 34.9844 10.1688C35.6189 9.82272 36.3811 9.82272 37.0155 10.1688C40.6554 12.1669 46.4293 14.8181 53.2643 16.1056C54.2613 16.293 54.9842 17.1624 54.9842 18.1778V27.5614H63.4219Z" fill="#7E127B"/>
<path d="M23.0941 52.874H13.1096C17.7239 61.6015 25.575 68.6377 35.3324 71.8899C35.5487 71.962 35.7753 71.999 35.9999 71.999C36.2244 71.999 36.451 71.9619 36.6673 71.8899C46.4272 68.6378 54.2502 61.6288 58.8607 52.874H48.9056C45.7914 57.09 41.7186 60.4557 36.8629 62.6299C36.5889 62.7535 36.2943 62.8152 35.9997 62.8152C35.7051 62.8152 35.4106 62.7535 35.1366 62.6299C30.2811 60.4557 26.2083 57.09 23.0941 52.874Z" fill="#7E127B"/>
<path d="M21.2344 19.898V27.5615H50.7656V19.898C44.7341 18.5508 39.5904 16.2973 36 14.4124C32.4094 16.2973 27.2658 18.5508 21.2344 19.898Z" fill="#7E127B"/>
<path d="M43.4043 52.874H28.5955C30.7224 55.1042 33.1845 56.9931 35.9999 58.3761C38.8153 56.9932 41.2775 55.1042 43.4043 52.874Z" fill="#7E127B"/>
<path d="M71.8387 33.0822C71.5133 32.2933 70.7428 31.7803 69.89 31.7803H2.10977C1.25702 31.7803 0.486538 32.2931 0.161132 33.0822C-0.166384 33.8711 0.0148816 34.7776 0.618444 35.3811L5.45524 40.2179L0.618444 45.0546C0.0148816 45.6581 -0.166384 46.5645 0.161132 47.3535C0.486538 48.1424 1.25702 48.6554 2.10977 48.6554H69.89C70.7428 48.6554 71.5133 48.1426 71.8387 47.3535C72.1662 46.5646 71.9849 45.6581 71.3814 45.0546L66.5446 40.2178L71.3814 35.381C71.9849 34.7776 72.1662 33.8711 71.8387 33.0822ZM19.125 42.3271C17.96 42.3271 17.0156 41.3827 17.0156 40.2178C17.0156 39.0526 17.96 38.1084 19.125 38.1084C20.2899 38.1084 21.2344 39.0526 21.2344 40.2178C21.2344 41.3827 20.2898 42.3271 19.125 42.3271ZM44.4375 42.3271H27.5625C26.3966 42.3271 25.4531 41.3837 25.4531 40.2178C25.4531 39.0519 26.3966 38.1084 27.5625 38.1084H44.4375C45.6034 38.1084 46.5469 39.0519 46.5469 40.2178C46.5469 41.3837 45.6034 42.3271 44.4375 42.3271ZM52.875 42.3271C51.71 42.3271 50.7656 41.3827 50.7656 40.2178C50.7656 39.0526 51.71 38.1084 52.875 38.1084C54.0399 38.1084 54.9844 39.0526 54.9844 40.2178C54.9844 41.3827 54.0398 42.3271 52.875 42.3271Z" fill="#7E127B"/>
</svg>
