<svg width="72" height="72" viewBox="0 0 72 72" fill="none" xmlns="http://www.w3.org/2000/svg">
<path d="M17.4 18.2999C14.9999 15.8999 4.79995 15.3 1.49991 14.9999C1.19995 14.9999 0.899859 14.9999 0.599906 15.2998C0.299953 15.5999 0 16.2 0 16.4999V43.4999C0 44.3999 0.600047 45 1.50005 45H10.5C11.1001 45 11.7 44.7 12.0001 44.1C12.0001 43.2 17.4001 27.2999 18.0001 19.5C18 19.1999 18 18.6 17.4 18.2999Z" fill="#7E127B"/>
<path d="M49.5002 25.4999C46.5002 24.5999 43.8002 23.3999 41.4002 22.4999C36.0002 20.0999 33.6001 21.3 28.8002 26.0999C26.7002 28.1999 25.2002 31.2 25.5001 32.3999C25.5001 32.6999 25.5001 32.6999 26.1002 33C27.6002 33.6 29.7002 33.9 31.8001 30.5999C32.1001 30.3 32.4002 29.9999 33.0001 29.9999C33.9001 29.9999 34.2 29.6999 35.1 29.3998C35.7001 29.0999 36.3 28.7998 37.2 28.4999C37.4999 28.4999 37.4999 28.4999 37.8 28.4999C38.1 28.4999 38.7 28.7998 39 28.7998C40.5002 30.3 43.2002 32.3999 45.9002 34.8C50.1002 38.1 54.3001 41.7001 56.4002 44.4001H56.7002C54.6002 38.4 51.0002 28.1999 49.5002 25.4999Z" fill="#7E127B"/>
<path d="M70.5001 18C58.8001 18 52.2001 21 51.9 21C51.6001 21.2999 51.3 21.6 51 21.9C51 22.1999 51 22.8 51.3 23.0999C53.1 26.0999 59.1 42.6 60 46.7999C60.3 47.3999 60.9 47.9998 61.5001 47.9998H70.5001C71.4001 47.9998 72.0001 47.3998 72.0001 46.4998V19.4998C72.0001 18.6 71.4001 18 70.5001 18Z" fill="#7E127B"/>
<path d="M54.3 47.4001C53.1 44.7001 48 40.8002 43.5 37.2002C41.1001 35.1001 38.7 33.3001 36.9 31.8C36.6001 32.1 36 32.1 36 32.4001C35.1 32.7 34.8001 33.0001 33.6 33.0001C31.2001 36.0001 28.2 37.2 24.9001 36.0001C23.4 35.7001 22.5 34.5 22.2001 33.3001C21.6 30.3001 24.3 26.1001 26.4001 24.0001H20.4001C19.2001 30.0002 17.1 37.8001 15.6001 42.0001C16.8001 43.2001 18.0001 44.7001 18.9001 45.3002C24.6001 50.1001 31.2002 54.9002 32.4001 55.8002C33.3001 56.4003 35.1001 57.0002 36.0001 57.0002C36.3001 57.0002 36.6002 57.0002 36.9001 57.0002L32.1 52.2001C31.5 51.6 31.5 50.7 32.1 50.1001C32.7001 49.5002 33.6001 49.5001 34.2 50.1001L40.2001 56.1002C40.8001 56.7002 41.4 56.4001 42.0001 56.4001C42.9001 56.1002 43.2 55.5001 43.5001 54.6001L36.6001 47.7001C36 47.1 36 46.2 36.6001 45.6001C37.2001 45.0002 38.1001 45.0001 38.7 45.6001L46.2 53.1001C46.4999 53.4 47.7 53.4 48.6 53.1001C48.9 52.8001 49.5 52.5 49.8 51.9001L41.4 43.5C40.8 42.9 40.8 42 41.4 41.4001C42.0001 40.8002 42.9001 40.8 43.5 41.4001L52.2 50.1001C52.8001 50.4001 53.4 50.1001 54 49.8002C54.3 49.5001 54.9 48.6001 54.3 47.4001Z" fill="#7E127B"/>
</svg>
