<svg width="72" height="72" viewBox="0 0 72 72" fill="none" xmlns="http://www.w3.org/2000/svg">
<path d="M71.1188 17.0864C68.8028 8.70301 62.0042 2.26886 53.6024 0.521168H53.6045C47.3646 -0.773847 41.1738 0.375059 36.0001 3.75554C30.8265 0.37084 24.6276 -0.777784 18.3978 0.521168C9.99615 2.26886 3.19749 8.70301 0.881395 17.0864C-1.45734 25.5561 1.22382 34.4911 7.65319 40.4058C11.1242 43.5968 12.8103 48.3587 12.8103 54.9591C12.8103 60.176 13.9426 64.6748 16.0838 67.7033C18.0149 70.4353 20.7036 72 23.4623 72C27.063 72 29.6756 69.3627 29.6756 65.7291V57.6588C29.6756 54.1561 32.1304 50.7395 36.0968 50.7862C39.8165 50.7632 42.3246 54.1839 42.3246 57.6588V65.7291C42.3246 69.3627 44.9371 72 48.5379 72C51.2967 72 53.9855 70.4353 55.9165 67.7035C58.0575 64.675 59.19 60.1761 59.19 54.9592C59.19 48.3588 60.8761 43.597 64.3471 40.4059C70.7765 34.491 73.4575 25.5561 71.1188 17.0864ZM36.6672 25.3359L28.1811 28.1666L25.3503 36.6528C25.0641 37.5134 24.259 38.0939 23.3512 38.0939C22.4433 38.0939 21.6382 37.5133 21.352 36.6528L18.5213 28.1666L10.0351 25.3359C9.17461 25.0497 8.59397 24.2446 8.59397 23.3367C8.59397 22.4289 9.17475 21.6238 10.0352 21.3376L18.5214 18.5068L21.3522 10.0207C21.9868 8.11225 24.7156 8.11225 25.3503 10.0207L28.1811 18.5068L36.6672 21.3376C37.5278 21.6238 38.1083 22.4289 38.1083 23.3367C38.1083 24.2446 37.5278 25.0497 36.6672 25.3359Z" fill="#7E127B"/>
</svg>
