<svg width="64" height="72" viewBox="0 0 64 72" fill="none" xmlns="http://www.w3.org/2000/svg">
<path d="M30.4276 36.4457C27.3018 33.5017 24.5644 31.1093 22.2174 29.0578C14.8832 22.6492 10.8442 19.1183 10.8442 12.3833C10.8444 5.43964 15.9287 0 22.4178 0C27.1943 0 30.1942 2.83864 31.9481 5.46037C33.7931 2.65685 36.8507 0 41.3359 0C47.8271 0 52.9115 5.43964 52.9115 12.3834C52.9115 19.2444 48.7093 22.9012 41.0839 29.5393C38.8444 31.4874 36.2578 33.7393 33.3138 36.4602C32.5003 37.2114 31.2394 37.2121 30.4276 36.4457Z" fill="#7E127B"/>
<path d="M29.8844 46.1631C29.8844 42.157 27.6211 38.4947 24.0377 36.7031L16.0218 32.6951C14.6151 31.9916 12.96 33.0146 12.96 34.5873C13.0432 35.0595 12.4086 39.6901 15.8494 41.9251L20.4595 44.9195C21.4387 45.5578 21.7177 46.8676 21.0813 47.847C20.4345 48.8385 19.1182 49.0968 18.1538 48.4688L11.6171 44.2212C9.81576 43.0506 8.72879 41.0483 8.72879 38.9V27.2651C8.72879 23.5646 6.63807 20.1818 3.32822 18.5269C1.92152 17.8235 0.266602 18.8465 0.266602 20.419V41.008C0.266602 50.5735 9.7609 55.4149 9.35345 54.9918C11.6065 56.4938 12.9599 59.0226 12.9599 61.7303V69.8848C12.9599 71.0532 13.9071 72.0004 15.0754 72.0004H27.7687C28.9371 72.0004 29.8843 71.0532 29.8843 69.8848V46.1631H29.8844Z" fill="#7E127B"/>
<path d="M39.9623 36.7031L47.9782 32.6951C49.3849 31.9916 51.04 33.0146 51.04 34.5873C50.9568 35.0595 51.5914 39.6901 48.1505 41.9251L43.5405 44.9195C42.5613 45.5578 42.2823 46.8676 42.9187 47.847C43.5655 48.8385 44.8817 49.0968 45.8462 48.4688L52.3829 44.2212C54.1842 43.0506 55.2712 41.0483 55.2712 38.9V27.2651C55.2712 23.5646 57.3619 20.1818 60.6718 18.5269C62.0785 17.8235 63.7334 18.8465 63.7334 20.419V41.008C63.7334 50.5735 54.2391 55.4149 54.6466 54.9918C52.3935 56.4938 51.0401 59.0226 51.0401 61.7303V69.8848C51.0401 71.0532 50.0929 72.0004 48.9246 72.0004H36.2313C35.0629 72.0004 34.1157 71.0532 34.1157 69.8848V46.1631C34.1156 42.157 36.3789 38.4947 39.9623 36.7031Z" fill="#7E127B"/>
</svg>
